<svg xmlns="http://www.w3.org/2000/svg" xmlns:x="http://www.w3.org/1999/xlink">
  <defs>
    <path
      id="receiver"
      d="m 255.183,129.819 c -7.977,0 -15.961,0.081 -23.94,-0.02 -8.805,-0.115 -15.144,-4.212 -18.397,-12.429 -0.973,-2.46 -1.235,-5.322 -1.271,-8.009 -0.146,-9.861 -0.11,-19.725 -0.016,-29.586 0.02,-1.897 -0.602,-2.878 -2.325,-3.583 -6.128,-2.497 -12.442,-4.307 -18.922,-5.643 -14.306,-2.947 -28.778,-3.834 -43.34,-3.697 -10.321,0.095 -20.613,0.841 -30.803,2.521 -8.539,1.409 -16.938,3.401 -24.954,6.796 -1.784,0.755 -2.401,1.748 -2.379,3.709 0.105,10.148 0.131,20.294 0.02,30.44 -0.095,8.614 -4.238,14.748 -12.152,18.072 -2.242,0.942 -4.864,1.348 -7.314,1.368 -16.078,0.121 -32.153,0.117 -48.227,0.055 C 11.687,129.774 4.649,124.452 1.993,115.33 1.442,113.451 1.375,111.388 1.361,109.406 1.299,100 1.612,90.583 1.254,81.192 0.859,70.661 4.883,62.178 11.996,54.819 c 7.045,-7.292 15.401,-12.768 24.292,-17.47 10.477,-5.542 21.422,-10 32.815,-13.246 8.576,-2.442 17.206,-4.785 25.931,-6.587 8.013,-1.655 16.156,-2.84 24.298,-3.664 9.512,-0.962 19.091,-1.808 28.637,-1.786 10.921,0.026 21.86,0.773 32.745,1.752 8.147,0.732 16.275,2.039 24.305,3.633 7.907,1.568 15.724,3.657 23.499,5.815 11.686,3.245 22.966,7.623 33.768,13.167 9.559,4.907 18.599,10.594 26.104,18.415 4.541,4.737 8.238,10.047 9.788,16.544 0.523,2.196 0.792,4.507 0.808,6.767 0.075,10.6 0.097,21.204 -0.004,31.808 -0.085,8.711 -4.083,15.073 -12.207,18.387 -2.454,1.001 -5.308,1.344 -7.988,1.405 -7.868,0.179 -15.735,0.062 -23.604,0.06 z" />
    <path
      id="phone" 
      d="m 29.749,270.225 v -0.586 l 0.079,-0.577 16.082,-116.937 16.941,2.33 -15.973,116.173 c 0.194,1.51 1.485,2.677 3.052,2.677 h 200.421 c 1.562,0 2.856,-1.167 3.054,-2.677 l -15.937,-115.857 16.939,-2.333 16.124,117.201 v 0.586 c 0,11.129 -9.054,20.179 -20.181,20.179 H 49.93 c -11.129,0 -20.181,-9.05 -20.181,-20.179 z" />
  </defs> 
</svg>
